<svg xmlns="http://www.w3.org/2000/svg" fill-rule="evenodd" stroke-linejoin="round" stroke-miterlimit="2" clip-rule="evenodd" viewBox="0 0 32 32" id="user-sync"><g><circle cx="15.956" cy="10" r="6" fill="url(#_Linear1)"></circle><path fill="url(#_Linear2)" d="M5.996,27.103c0.454,-5.1 4.743,-9.103 9.96,-9.103c0.306,0 0.609,0.014 0.907,0.041c0.55,0.049 1.037,-0.357 1.086,-0.907c0.049,-0.549 -0.357,-1.036 -0.906,-1.085c-0.358,-0.033 -0.72,-0.049 -1.087,-0.049c-6.261,0 -11.408,4.806 -11.952,10.926c-0.049,0.55 0.358,1.036 0.907,1.085c0.55,0.049 1.036,-0.358 1.085,-0.908Z"></path><path fill="url(#_Linear3)" d="M25.927,23.579c0,1.356 -1.101,2.457 -2.457,2.457c-0.447,0 -0.866,-0.119 -1.227,-0.328c-0.478,-0.276 -1.09,-0.113 -1.366,0.365c-0.276,0.478 -0.113,1.09 0.365,1.367c0.656,0.379 1.417,0.596 2.228,0.596c2.46,0 4.457,-1.997 4.457,-4.457c0,-0.552 -0.448,-1 -1,-1c-0.551,-0 -1,0.448 -1,1Z"></path><path fill="url(#_Linear4)" d="M21.012,23.579c0,-1.357 1.101,-2.458 2.458,-2.458c0.453,-0 0.877,0.122 1.242,0.337c0.475,0.279 1.089,0.12 1.368,-0.356c0.28,-0.476 0.121,-1.089 -0.355,-1.369c-0.662,-0.389 -1.433,-0.612 -2.255,-0.612c-2.46,-0 -4.458,1.997 -4.458,4.458c0,0.551 0.448,1 1,1c0.552,-0 1,-0.449 1,-1Z"></path></g><defs><linearGradient id="_Linear1" x1="0" x2="1" y1="0" y2="0" gradientTransform="matrix(32 0 0 32 0 16)" gradientUnits="userSpaceOnUse"><stop offset="0" stop-color="#0077b6"></stop><stop offset="1" stop-color="#90e0ef"></stop></linearGradient><linearGradient id="_Linear2" x1="0" x2="1" y1="0" y2="0" gradientTransform="matrix(32 0 0 32 0 16)" gradientUnits="userSpaceOnUse"><stop offset="0" stop-color="#0077b6"></stop><stop offset="1" stop-color="#90e0ef"></stop></linearGradient><linearGradient id="_Linear3" x1="0" x2="1" y1="0" y2="0" gradientTransform="matrix(32 0 0 32 0 16)" gradientUnits="userSpaceOnUse"><stop offset="0" stop-color="#0077b6"></stop><stop offset="1" stop-color="#90e0ef"></stop></linearGradient><linearGradient id="_Linear4" x1="0" x2="1" y1="0" y2="0" gradientTransform="matrix(32 0 0 32 0 16)" gradientUnits="userSpaceOnUse"><stop offset="0" stop-color="#0077b6"></stop><stop offset="1" stop-color="#90e0ef"></stop></linearGradient></defs></svg>