<svg xmlns="http://www.w3.org/2000/svg" viewBox="0 0 32 32" id="right"><g data-name="Layer 2"><path fill="#fcae18" d="M22.4,2.55a14.86,14.86,0,0,0-5.86-1.19,15,15,0,1,0,0,30,14.86,14.86,0,0,0,5.86-1.19,15,15,0,0,0,0-27.62ZM14.07,23.43a1,1,0,0,1-1.41,0,1,1,0,0,1,0-1.42l5.65-5.65-5.65-5.66a1,1,0,0,1,0-1.42,1,1,0,0,1,1.41,0l7.07,7.08Z"></path><path d="M12.94,8.56,20,15.64l-7.07,7.07a1,1,0,0,1-1.41,0h0a1,1,0,0,1,0-1.41l5.66-5.66L11.53,10a1,1,0,0,1,0-1.41h0A1,1,0,0,1,12.94,8.56Z"></path><path fill="#f94819" d="M31.54,16.36A15,15,0,0,1,22.4,30.17V2.55A15,15,0,0,1,31.54,16.36Z"></path><path d="M2.46,16.45h-2a14.93,14.93,0,0,0,.79,4l1.85-.79A12.92,12.92,0,0,1,2.46,16.45Z"></path><path d="M15.42.64A15,15,0,0,0,.54,13.82h2a13,13,0,1,1,1.6,8.26l-1.84.79A15,15,0,1,0,15.42.64Z"></path></g></svg>